<?xml version="1.0" encoding="iso-8859-1"?>
<!-- Generator: Adobe Illustrator 20.0.0, SVG Export Plug-In . SVG Version: 6.00 Build 0)  -->
<svg version="1.1" id="Layer_1" xmlns="http://www.w3.org/2000/svg" xmlns:xlink="http://www.w3.org/1999/xlink" x="0px" y="0px"
	 viewBox="0 0 163.802 163.802" style="enable-background:new 0 0 163.802 163.802;" xml:space="preserve">
<path style="fill:#010202;" d="M157.005,65.491L98.311,6.797c-9.063-9.063-23.758-9.062-32.82,0L6.797,65.491
	c-9.063,9.063-9.063,23.757,0.001,32.82l58.693,58.693c9.064,9.063,23.757,9.063,32.819,0l58.695-58.693
	C166.066,89.248,166.068,74.554,157.005,65.491z M81.901,132.358c-8.134,0-14.728-6.594-14.728-14.727
	c0-8.134,6.594-14.729,14.728-14.729s14.728,6.595,14.728,14.729C96.629,125.764,90.035,132.358,81.901,132.358z M91.924,91.236
	c0,3.456-20.044,3.456-20.044,0l-7.421-50.533c0-3.455,2.8-6.257,6.255-6.257h22.374c3.455,0,6.256,2.802,6.256,6.257L91.924,91.236
	z"/>
</svg>
